<svg xmlns="http://www.w3.org/2000/svg" viewBox="0 0 732.85 190.2"><defs><style>.cls-1{fill:#7b88ff;}.cls-2{fill:#293173;}</style></defs><title>Asset 2</title><g id="Layer_2" data-name="Layer 2"><g id="Layer_1-2" data-name="Layer 1"><path d="M308.85,77.2c-15.6,0-30,9.2-30,31V144h-29.2V53.4h27l.8,14.2c5.6-11.4,16.8-15.8,31.6-15.8l2.2,25.4Z"/><path d="M366.05,146.8c-27.4,0-49.4-19.8-49.4-48,0-28.4,22-48.2,49.4-48.2,27.2,0,49.2,19.8,49.2,48.2C415.25,127,393.25,146.8,366.05,146.8Zm0-71.4c-11.4,0-21,9.8-21,23.4,0,13.4,9.6,23,21,23,11.2,0,21-9.6,21-23C387.05,85.2,377.25,75.4,366.05,75.4Z"/><path d="M491.85,144l-.8-9c-5.2,7-14.2,11.4-27.2,11.4-19.8,0-33.6-12.6-33.6-32.6V53.4h29.4v54c0,6.6,4.6,12.6,13.8,12.6,9,0,14.8-5.8,14.8-13V53.4h29.4V144Z"/><path d="M582.05,146.8c-7.6,0-13.4-1.6-17-3.8v47.2h-28.4V53.4h23l.8,6.6c4.6-6,14-9,24.8-9,21.6,0,45.59,17.2,45.59,46.6C630.84,127.2,609.84,146.8,582.05,146.8Zm-.6-70.4a23.34,23.34,0,0,0-16.4,6.2V116c3.6,3.2,9.4,5.6,16.4,5.6,12,0,21.2-9.4,21.2-22.6S593.45,76.4,581.45,76.4Z"/><path d="M643.45,60l-9.4-1.6c7.6-8.8,13.2-20,14.8-28.4-4.6-.8-13-9.4-13-13.8,0-6,11.4-16.2,16.6-16.2,4.6,0,16.6,10,16.6,16.2C669.05,27.4,655.85,48.8,643.45,60Z"/><path d="M730.45,77.2c-15.6,0-30,9.2-30,31V144h-29.2V53.4h27l.8,14.2c5.6-11.4,16.8-15.8,31.6-15.8l2.2,25.4Z"/><g id="Layer_1-2-2" data-name="Layer 1-2"><path class="cls-1" d="M106.1,97.6l46.5-40.8,27.3,23.4H227l-7.6-6.5-67-58-52,45.5-.2-.2C60.2,19.5,0,57,0,57L58,98.1l.3.2"/><path class="cls-2" d="M106.8,97.7l46.3,39.4,27.2-23.7H152.4l-.1-17h76.2l-.5,17.5-7.8,6.8-66.3,57.9-52-44.4-.3.1C60,172.2.5,137.6.5,137.6L59.1,98.5"/></g></g></g></svg>