<svg xmlns="http://www.w3.org/2000/svg" viewBox="0 0 744.36 218"><defs><style>.cls-1{fill:#7b88ff;}.cls-2{fill:#293173;}.cls-3{font-size:200px;font-family:Agenda-Bold, Agenda;font-weight:700;}.cls-4{letter-spacing:-0.02em;}.cls-5{letter-spacing:-0.03em;}.cls-6{letter-spacing:-0.07em;}</style></defs><title>Asset 2</title><g id="Layer_2" data-name="Layer 2"><g id="Layer_1-2" data-name="Layer 1"><g id="Layer_1-2-2" data-name="Layer 1-2"><path class="cls-1" d="M108.82,127.13l47.7-41.86,28,24h48.38l-7.8-6.71L156.29,43.09,103,89.8l-.17-.19C61.83,47.05,0,85.46,0,85.46l59.56,42.15.31.21"/><path class="cls-2" d="M109.54,127.16,157,167.55l27.88-24.36H156.25l-.06-17.45h78.23l-.52,17.92-8,7-68,59.45-53.33-45.62-.29.08C61.53,203.47.48,167.92.48,167.92l60.16-40.08"/></g><text class="cls-3" transform="translate(247.17 170)"><tspan class="cls-4">r</tspan><tspan x="71.6" y="0">ou</tspan><tspan class="cls-5" x="287.6" y="0">p</tspan><tspan class="cls-6" x="391.4" y="0">’</tspan><tspan x="421.6" y="0">r</tspan></text></g></g></svg>