<svg width="214" height="71" viewBox="0 0 214 71" fill="none" xmlns="http://www.w3.org/2000/svg">
<mask id="mask0_2_25" style="mask-type:luminance" maskUnits="userSpaceOnUse" x="0" y="0" width="214" height="71">
<path d="M214 0H0V71H214V0Z" fill="white"/>
</mask>
<g mask="url(#mask0_2_25)">
<path d="M210.112 35.0248C206.607 34.7233 203.578 35.5847 201.025 37.6091C200.289 40.9255 200.722 46.3524 202.323 53.8897H179.904V50.8862C178.341 52.6134 175.897 53.6146 172.571 53.8897L166.135 54.1228L165.933 64.9597L147.678 64.9648V54.2362L130.489 54.3415C127.663 54.1264 125.211 52.3717 123.134 49.0773C121.576 51.7687 118.663 53.5335 114.394 54.3718H104.181C100.358 54.0375 96.8098 51.8094 93.5355 47.6875L91.9777 54.3718H73.6921V48.2044L54.3629 65.7027L39.2717 53.1144C28.4392 58.5468 16.7869 57.2012 4.31459 49.0773C2.50439 45.2953 6.45423 40.9557 16.1641 36.0586C7.7443 29.1921 3.79445 24.8687 4.31459 23.0885C10.3679 15.3684 22.0203 13.4897 39.2717 17.4522L52.8377 5.92052L73.5436 23.0885L73.6921 17.1937H98.7929L99.0526 20.8117C100.769 19.3903 103.489 18.2704 107.21 17.4522H112.554C116.247 18.1987 119.175 19.577 121.338 21.5868V17.4522L175.365 17.1937C174.623 14.2006 174.623 11.961 175.365 10.4748C176.844 7.50897 179.729 5.13189 183.629 5.30619C187.008 5.45742 189.162 7.59949 190.899 9.95793C192.004 11.4577 192.609 13.8696 192.716 17.1937L206.637 17.4522L210.112 35.0248Z" fill="#FFFAF3"/>
<mask id="mask1_2_25" style="mask-type:luminance" maskUnits="userSpaceOnUse" x="3" y="5" width="208" height="61">
<path d="M210.112 35.0248C206.607 34.7233 203.578 35.5847 201.025 37.6091C200.289 40.9255 200.722 46.3524 202.323 53.8897H179.904V50.8862C178.341 52.6134 175.897 53.6146 172.571 53.8897L166.135 54.1228L165.933 64.9597L147.678 64.9648V54.2362L130.489 54.3415C127.663 54.1264 125.211 52.3717 123.134 49.0773C121.576 51.7687 118.663 53.5335 114.394 54.3718H104.181C100.358 54.0375 96.8098 51.8094 93.5355 47.6875L91.9777 54.3718H73.6921V48.2044L54.3629 65.7027L39.2717 53.1144C28.4392 58.5468 16.7869 57.2012 4.31459 49.0773C2.50439 45.2953 6.45423 40.9557 16.1641 36.0586C7.7443 29.1921 3.79445 24.8687 4.31459 23.0885C10.3679 15.3684 22.0203 13.4897 39.2717 17.4522L52.8377 5.92052L73.5436 23.0885L73.6921 17.1937H98.7929L99.0526 20.8117C100.769 19.3903 103.489 18.2704 107.21 17.4522H112.554C116.247 18.1987 119.175 19.577 121.338 21.5868V17.4522L175.365 17.1937C174.623 14.2006 174.623 11.961 175.365 10.4748C176.844 7.50897 179.729 5.13189 183.629 5.30619C187.008 5.45742 189.162 7.59949 190.899 9.95793C192.004 11.4577 192.609 13.8696 192.716 17.1937L206.637 17.4522L210.112 35.0248Z" fill="white"/>
</mask>
<g mask="url(#mask1_2_25)">
<path d="M210.112 35.0248C206.607 34.7233 203.578 35.5847 201.025 37.6091C200.289 40.9255 200.722 46.3524 202.323 53.8897H179.904V50.8862C178.341 52.6134 175.897 53.6146 172.571 53.8897L166.135 54.1228L165.933 64.9597L147.678 64.9648V54.2362L130.489 54.3415C127.663 54.1264 125.211 52.3717 123.134 49.0773C121.576 51.7687 118.663 53.5335 114.394 54.3718H104.181C100.358 54.0375 96.8098 51.8094 93.5355 47.6875L91.9777 54.3718H73.6921V48.2044L54.3629 65.7027L39.2717 53.1144C28.4392 58.5468 16.7869 57.2012 4.31459 49.0773C2.50439 45.2953 6.45423 40.9557 16.1641 36.0586C7.7443 29.1921 3.79445 24.8687 4.31459 23.0885C10.3679 15.3684 22.0203 13.4897 39.2717 17.4522L52.8377 5.92052L73.5436 23.0885L73.6921 17.1937H98.7929L99.0526 20.8117C100.769 19.3903 103.489 18.2704 107.21 17.4522H112.554C116.247 18.1987 119.175 19.577 121.338 21.5868V17.4522L175.365 17.1937C174.623 14.2006 174.623 11.961 175.365 10.4748C176.844 7.50897 179.729 5.13189 183.629 5.30619C187.008 5.45742 189.162 7.59949 190.899 9.95793C192.004 11.4577 192.609 13.8696 192.716 17.1937L206.637 17.4522L210.112 35.0248Z" fill="#FFFAF3"/>
</g>
<path d="M94.1866 30.3992C90.1363 30.3992 86.3975 32.7766 86.3975 38.4103V47.6618H78.816V24.2486H85.8263L86.0339 27.9183C87.4878 24.9723 90.3957 23.8352 94.2385 23.8352L94.8097 30.3992H94.1866Z" fill="#7B88FF"/>
<path d="M109.038 48.3853C101.924 48.3853 96.2117 43.2685 96.2117 35.981C96.2117 28.6418 101.924 23.5251 109.038 23.5251C116.1 23.5251 121.812 28.6418 121.812 35.981C121.812 43.2685 116.1 48.3853 109.038 48.3853ZM109.038 29.934C106.078 29.934 103.585 32.4665 103.585 35.981C103.585 39.4439 106.078 41.9248 109.038 41.9248C111.946 41.9248 114.49 39.4439 114.49 35.981C114.49 32.4665 111.946 29.934 109.038 29.934Z" fill="#7B88FF"/>
<path d="M142.738 47.6618L142.531 45.336C141.181 47.1449 138.844 48.2819 135.469 48.2819C130.328 48.2819 126.745 45.0259 126.745 39.8574V24.2486H134.378V38.2035C134.378 39.9091 135.572 41.4596 137.961 41.4596C140.298 41.4596 141.804 39.9607 141.804 38.1V24.2486H149.437V47.6618H142.738Z" fill="#7B88FF"/>
<path d="M165.119 48.3853C163.146 48.3853 161.64 47.9719 160.705 47.4033V59.6008H153.332V24.2486H159.303L159.511 25.9542C160.705 24.4038 163.146 23.6284 165.95 23.6284C171.558 23.6284 177.787 28.0732 177.787 35.6709C177.787 43.3203 172.334 48.3853 165.119 48.3853ZM164.963 30.1924C163.389 30.1553 161.861 30.73 160.705 31.7945V40.426C161.64 41.2528 163.146 41.8731 164.963 41.8731C168.079 41.8731 170.468 39.4439 170.468 36.0327C170.468 32.6215 168.079 30.1924 164.963 30.1924Z" fill="#7B88FF"/>
<path d="M181.32 25.9542L178.88 25.5409C180.853 23.2667 182.307 20.3724 182.722 18.2016C181.528 17.9948 179.347 15.7725 179.347 14.6354C179.347 13.0848 182.307 10.4489 183.657 10.4489C184.851 10.4489 187.967 13.0331 187.967 14.6354C187.967 17.5297 184.54 23.0599 181.32 25.9542Z" fill="#293173"/>
<path d="M200.849 29.7888C196.83 30.2886 193.416 33.1093 194.118 38.6994L195.27 47.8796L187.747 48.8152L184.831 25.5827L191.787 24.7176L192.45 28.3333C193.526 25.2306 196.269 23.7433 200.082 23.269L201.467 29.7119L200.849 29.7888Z" fill="#7B88FF"/>
<path d="M41.5454 35.6709L53.6184 25.1273L60.7064 31.1743H72.9353L70.962 29.4947L53.5665 14.5062L40.0654 26.2643L40.0135 26.2127C29.6281 15.4881 13.9979 25.1789 13.9979 25.1789L29.0569 35.8002L29.1347 35.8518" fill="#7B88FF"/>
<path d="M41.7271 35.6968L53.7482 45.8786L60.8102 39.754H53.5665L53.5405 35.3608H73.3248L73.195 39.8832L71.1698 41.6404L53.956 56.6032L40.4549 45.1292L40.377 45.1551C29.576 54.9492 14.1277 46.0078 14.1277 46.0078L29.3424 35.9035" fill="#293173"/>
</g>
</svg>
