<svg id="visual" viewBox="0 0 900 600" width="900" height="600" xmlns="http://www.w3.org/2000/svg" xmlns:xlink="http://www.w3.org/1999/xlink" version="1.1"><path d="M0 217L13.7 221C27.3 225 54.7 233 82 217C109.3 201 136.7 161 163.8 150C191 139 218 157 245.2 152C272.3 147 299.7 119 327 120C354.3 121 381.7 151 409 174C436.3 197 463.7 213 491 225C518.3 237 545.7 245 573 243C600.3 241 627.7 229 654.8 202C682 175 709 133 736.2 128C763.3 123 790.7 155 818 159C845.3 163 872.7 139 886.3 127L900 115L900 0L886.3 0C872.7 0 845.3 0 818 0C790.7 0 763.3 0 736.2 0C709 0 682 0 654.8 0C627.7 0 600.3 0 573 0C545.7 0 518.3 0 491 0C463.7 0 436.3 0 409 0C381.7 0 354.3 0 327 0C299.7 0 272.3 0 245.2 0C218 0 191 0 163.8 0C136.7 0 109.3 0 82 0C54.7 0 27.3 0 13.7 0L0 0Z" fill="#cce2ff"></path><path d="M0 307L13.7 313C27.3 319 54.7 331 82 341C109.3 351 136.7 359 163.8 353C191 347 218 327 245.2 318C272.3 309 299.7 311 327 312C354.3 313 381.7 313 409 311C436.3 309 463.7 305 491 317C518.3 329 545.7 357 573 358C600.3 359 627.7 333 654.8 321C682 309 709 311 736.2 321C763.3 331 790.7 349 818 350C845.3 351 872.7 335 886.3 327L900 319L900 113L886.3 125C872.7 137 845.3 161 818 157C790.7 153 763.3 121 736.2 126C709 131 682 173 654.8 200C627.7 227 600.3 239 573 241C545.7 243 518.3 235 491 223C463.7 211 436.3 195 409 172C381.7 149 354.3 119 327 118C299.7 117 272.3 145 245.2 150C218 155 191 137 163.8 148C136.7 159 109.3 199 82 215C54.7 231 27.3 223 13.7 219L0 215Z" fill="#c1dbff"></path><path d="M0 409L13.7 417C27.3 425 54.7 441 82 450C109.3 459 136.7 461 163.8 455C191 449 218 435 245.2 433C272.3 431 299.7 441 327 443C354.3 445 381.7 439 409 439C436.3 439 463.7 445 491 451C518.3 457 545.7 463 573 462C600.3 461 627.7 453 654.8 442C682 431 709 417 736.2 419C763.3 421 790.7 439 818 454C845.3 469 872.7 481 886.3 487L900 493L900 317L886.3 325C872.7 333 845.3 349 818 348C790.7 347 763.3 329 736.2 319C709 309 682 307 654.8 319C627.7 331 600.3 357 573 356C545.7 355 518.3 327 491 315C463.7 303 436.3 307 409 309C381.7 311 354.3 311 327 310C299.7 309 272.3 307 245.2 316C218 325 191 345 163.8 351C136.7 357 109.3 349 82 339C54.7 329 27.3 317 13.7 311L0 305Z" fill="#b6d3ff"></path><path d="M0 511L13.7 515C27.3 519 54.7 527 82 536C109.3 545 136.7 555 163.8 548C191 541 218 517 245.2 509C272.3 501 299.7 509 327 516C354.3 523 381.7 529 409 530C436.3 531 463.7 527 491 522C518.3 517 545.7 511 573 512C600.3 513 627.7 521 654.8 516C682 511 709 493 736.2 493C763.3 493 790.7 511 818 523C845.3 535 872.7 541 886.3 544L900 547L900 491L886.3 485C872.7 479 845.3 467 818 452C790.7 437 763.3 419 736.2 417C709 415 682 429 654.8 440C627.7 451 600.3 459 573 460C545.7 461 518.3 455 491 449C463.7 443 436.3 437 409 437C381.7 437 354.3 443 327 441C299.7 439 272.3 429 245.2 431C218 433 191 447 163.8 453C136.7 459 109.3 457 82 448C54.7 439 27.3 423 13.7 415L0 407Z" fill="#a8cbff"></path><path d="M0 601L13.7 601C27.3 601 54.7 601 82 601C109.3 601 136.7 601 163.8 601C191 601 218 601 245.2 601C272.3 601 299.7 601 327 601C354.3 601 381.7 601 409 601C436.3 601 463.7 601 491 601C518.3 601 545.7 601 573 601C600.3 601 627.7 601 654.8 601C682 601 709 601 736.2 601C763.3 601 790.7 601 818 601C845.3 601 872.7 601 886.3 601L900 601L900 545L886.3 542C872.7 539 845.3 533 818 521C790.7 509 763.3 491 736.2 491C709 491 682 509 654.8 514C627.7 519 600.3 511 573 510C545.7 509 518.3 515 491 520C463.7 525 436.3 529 409 528C381.7 527 354.3 521 327 514C299.7 507 272.3 499 245.2 507C218 515 191 539 163.8 546C136.7 553 109.3 543 82 534C54.7 525 27.3 517 13.7 513L0 509Z" fill="#9ac2ff"></path></svg>